<svg width="46" height="46" viewBox="0 0 46 46" fill="none" xmlns="http://www.w3.org/2000/svg">
<path d="M41.4428 22.4621C41.4428 32.5022 33.4499 40.7657 23.1696 40.7657C21.5351 40.7657 19.329 40.3549 18.1259 40.0181C16.9228 39.6814 15.7215 39.2348 15.4116 39.1152C15.0946 38.9933 14.7579 38.9306 14.4184 38.9303C14.0474 38.9289 13.6801 39.0027 13.3385 39.1473L7.28019 41.3338C7.14746 41.391 7.00683 41.4277 6.86308 41.4427C6.74965 41.4424 6.63741 41.4195 6.53287 41.3755C6.42832 41.3315 6.33356 41.2672 6.25406 41.1862C6.17455 41.1053 6.1119 41.0094 6.06972 40.9041C6.02754 40.7988 6.00667 40.6862 6.00832 40.5728C6.01577 40.4732 6.03374 40.3747 6.06191 40.2789L7.8143 33.9402C7.92059 33.5489 7.68569 33.005 7.4615 32.6129C7.3917 32.496 7.31598 32.3827 7.23464 32.2735C5.31189 29.3576 4.28707 25.9415 4.2872 22.4487C4.25594 12.4229 12.5695 4.28711 22.8498 4.28711C25.3836 4.28711 27.799 4.78317 30 5.68099" stroke="currentColor" stroke-width="2.875" stroke-miterlimit="10" stroke-linecap="round"/>
<path d="M38.3112 17.6065C37.1815 17.6065 36.0773 17.2715 35.138 16.6439C34.1987 16.0163 33.4667 15.1243 33.0344 14.0806C32.6021 13.037 32.489 11.8886 32.7094 10.7806C32.9297 9.67271 33.4737 8.65501 34.2725 7.85623C35.0713 7.05745 36.089 6.51348 37.1969 6.2931C38.3048 6.07272 39.4532 6.18582 40.4969 6.61812C41.5406 7.05041 42.4326 7.78248 43.0602 8.72174C43.6878 9.66101 44.0227 10.7653 44.0227 11.8949C44.0216 13.4094 43.4194 14.8614 42.3486 15.9323C41.2777 17.0032 39.8256 17.6053 38.3112 17.6065ZM38.3112 9.04137C37.7457 9.04048 37.1927 9.20735 36.7221 9.52086C36.2516 9.83436 35.8845 10.2804 35.6675 10.8026C35.4505 11.3247 35.3933 11.8995 35.5031 12.4542C35.6128 13.0089 35.8847 13.5186 36.2842 13.9187C36.6837 14.3189 37.193 14.5915 37.7475 14.7022C38.302 14.8128 38.8769 14.7565 39.3994 14.5403C39.9219 14.3241 40.3685 13.9578 40.6828 13.4877C40.997 13.0176 41.1647 12.4648 41.1647 11.8994C41.1647 11.1422 40.8642 10.4159 40.3292 9.88004C39.7942 9.34419 39.0684 9.04255 38.3112 9.04137Z" fill="currentColor"/>
<path d="M38.3067 16.1774C40.6719 16.1774 42.5893 14.2601 42.5893 11.8949C42.5893 9.52967 40.6719 7.6123 38.3067 7.6123C35.9415 7.6123 34.0242 9.52967 34.0242 11.8949C34.0242 14.2601 35.9415 16.1774 38.3067 16.1774Z" fill="currentColor"/>
</svg>
