<svg width="46" height="47" viewBox="0 0 46 47" fill="none" xmlns="http://www.w3.org/2000/svg">
<path d="M34.2961 33.3245L36.438 33.3245C36.4385 33.3245 36.439 33.3245 36.4395 33.3245C36.4395 33.3245 36.4396 33.3245 36.4396 33.3245C37.7652 33.3226 39.036 32.7952 39.9734 31.8578C40.911 30.9202 41.4385 29.6491 41.4401 28.3231V11.1768C41.4385 9.85084 40.911 8.57967 39.9734 7.64207C39.0358 6.70448 37.7646 6.17702 36.4387 6.17536H9.28931C7.96337 6.17702 6.6922 6.70448 5.7546 7.64207C4.81684 8.57983 4.28936 9.85129 4.28789 11.1775V28.3224C4.28936 29.6486 4.81684 30.9201 5.7546 31.8578C6.69199 32.7952 7.9628 33.3226 9.28843 33.3245C9.28896 33.3245 9.28948 33.3245 9.29001 33.3245L23.7804 33.3245H24.2983L24.6962 33.6563L32.8661 40.4688V34.7545V33.3245H34.2961Z" stroke="currentColor" stroke-width="2.86"/>
<circle cx="14" cy="20" r="1.5" stroke="currentColor" stroke-width="3"/>
<circle cx="23" cy="20" r="1.5" stroke="currentColor" stroke-width="3"/>
<circle cx="32" cy="20" r="1.5" stroke="currentColor" stroke-width="3"/>
</svg>
