<svg width="47" height="47" viewBox="0 0 47 47" fill="none" xmlns="http://www.w3.org/2000/svg">
<path d="M39.4084 29.0921C39.3191 28.7706 39.5156 28.324 39.7032 28.0025C39.7605 27.9068 39.8231 27.8143 39.8907 27.7256C41.495 25.3417 42.3532 22.5341 42.3558 19.6606C42.3826 11.426 35.434 4.74536 26.8421 4.74536C19.3487 4.74536 13.0968 9.84513 11.6321 16.6151C11.413 17.6185 11.3022 18.6425 11.3016 19.6696C11.3016 27.9132 17.9822 34.7724 26.5742 34.7724C27.9406 34.7724 29.7805 34.3616 30.7897 34.0847C31.799 33.8078 32.7993 33.4416 33.0583 33.3434C33.3238 33.2433 33.6052 33.1919 33.8889 33.1916C34.1985 33.1904 34.5052 33.2511 34.791 33.3702L39.855 35.1654C39.966 35.2124 40.0834 35.2425 40.2033 35.2547C40.3928 35.2547 40.5746 35.1794 40.7086 35.0454C40.8425 34.9114 40.9178 34.7297 40.9178 34.5402C40.9116 34.4584 40.8966 34.3776 40.8732 34.299L39.4084 29.0921Z" stroke="currentColor" stroke-width="2.85802" stroke-miterlimit="10" stroke-linecap="round"/>
<path d="M6.85043 21.179C5.67903 23.2834 5.11237 25.6708 5.21309 28.0771C5.31381 30.4835 6.07798 32.8152 7.42114 34.8144C7.62746 35.1261 7.74356 35.3672 7.70784 35.5289C7.67211 35.6905 6.64233 41.0547 6.64233 41.0547C6.61756 41.1802 6.62696 41.3101 6.66954 41.4307C6.71211 41.5514 6.78631 41.6584 6.88437 41.7406C7.01522 41.8449 7.17793 41.901 7.34523 41.8996C7.43463 41.8998 7.52311 41.8816 7.60513 41.846L12.6254 39.8811C12.9709 39.7449 13.3564 39.7513 13.6972 39.899C15.3888 40.5581 17.259 40.9707 19.1301 40.9707C21.6409 40.9734 24.1077 40.3112 26.2796 39.0514" stroke="currentColor" stroke-width="2.85802" stroke-miterlimit="10" stroke-linecap="round"/>
</svg>
