<svg width="46" height="47" viewBox="0 0 46 47" fill="none" xmlns="http://www.w3.org/2000/svg">
<path d="M7.99912 34.3984C8.1054 34.0072 7.8705 33.4633 7.64632 33.0712C7.57651 32.9543 7.50079 32.841 7.41945 32.7318C5.49671 29.8158 4.47189 26.3998 4.47201 22.907C4.44075 12.8812 12.7543 4.74536 23.0346 4.74536C32.0002 4.74536 39.484 10.9564 41.2329 19.2012C41.4949 20.4236 41.6272 21.6702 41.6276 22.9204C41.6276 32.9604 33.6347 41.224 23.3544 41.224C21.7199 41.224 19.5138 40.8131 18.3107 40.4764C17.1076 40.1397 15.9063 39.6931 15.5964 39.5734C15.2794 39.4516 14.9428 39.3889 14.6032 39.3885C14.2323 39.3871 13.8649 39.4609 13.5233 39.6056L7.465 41.792C7.33228 41.8492 7.19164 41.886 7.0479 41.901C6.93446 41.9006 6.82222 41.8778 6.71768 41.8338C6.61314 41.7897 6.51837 41.7254 6.43887 41.6445C6.35937 41.5636 6.29671 41.4677 6.25453 41.3624C6.21235 41.2571 6.19148 41.1445 6.19314 41.031C6.20059 40.9315 6.21855 40.833 6.24673 40.7372L7.99912 34.3984Z" stroke="currentColor" stroke-width="2.875" stroke-miterlimit="10" stroke-linecap="round"/>
</svg>
