<svg width="47" height="46" viewBox="0 0 47 46" fill="none" xmlns="http://www.w3.org/2000/svg">
<path d="M19.0344 5.71631H24.9962C25.754 5.71642 26.4807 6.01745 27.0166 6.5532L39.6334 19.17C40.1692 19.7059 40.4702 20.4326 40.4703 21.1904V38.5847C40.4703 39.7218 40.0186 40.8122 39.2146 41.6162C38.4106 42.4202 37.3201 42.8719 36.1831 42.8719H17.6053C16.4683 42.8719 15.3778 42.4202 14.5738 41.6162C13.7698 40.8122 13.3181 39.7218 13.3181 38.5847V27.1522" stroke="currentColor" stroke-width="2.9375" stroke-linecap="round" stroke-linejoin="round"/>
<path d="M26.1797 6.43066V17.1486C26.1797 17.9067 26.4808 18.6336 27.0168 19.1696C27.5528 19.7056 28.2798 20.0068 29.0378 20.0068H39.7558" stroke="currentColor" stroke-width="2.9375" stroke-linecap="round" stroke-linejoin="round"/>
<path d="M14.7472 7.14534V20.7214C14.7509 21.004 14.698 21.2844 14.5916 21.5461C14.4852 21.8079 14.3275 22.0457 14.1277 22.2455C13.9279 22.4453 13.6901 22.603 13.4283 22.7094C13.1666 22.8158 12.8862 22.8688 12.6036 22.865C11.5318 22.865 10.46 22.0522 10.46 20.7214V7.85987C10.46 5.12768 11.94 2.85815 14.7472 2.85815C17.5544 2.85815 19.0344 5.0732 19.0344 7.8045V20.1971C19.0344 24.0378 16.5496 27.1522 12.6036 27.1522C8.65763 27.1522 6.17285 24.0386 6.17285 20.1971V12.8616" stroke="currentColor" stroke-width="2.9375" stroke-miterlimit="10" stroke-linecap="round"/>
</svg>
