<svg width="46" height="47" viewBox="0 0 46 47" fill="none" xmlns="http://www.w3.org/2000/svg">
<path d="M22.8651 27.8805C25.2328 27.8805 27.1523 25.9611 27.1523 23.5933C27.1523 21.2256 25.2328 19.3062 22.8651 19.3062C20.4973 19.3062 18.5779 21.2256 18.5779 23.5933C18.5779 25.9611 20.4973 27.8805 22.8651 27.8805Z" fill="currentColor"/>
<path d="M37.1556 27.8805C39.5233 27.8805 41.4428 25.9611 41.4428 23.5933C41.4428 21.2256 39.5233 19.3062 37.1556 19.3062C34.7878 19.3062 32.8684 21.2256 32.8684 23.5933C32.8684 25.9611 34.7878 27.8805 37.1556 27.8805Z" fill="currentColor"/>
<path d="M8.5743 27.8805C10.942 27.8805 12.8615 25.9611 12.8615 23.5933C12.8615 21.2256 10.942 19.3062 8.5743 19.3062C6.20655 19.3062 4.28711 21.2256 4.28711 23.5933C4.28711 25.9611 6.20655 27.8805 8.5743 27.8805Z" fill="currentColor"/>
</svg>
