<svg width="46" height="46" viewBox="0 0 46 46" fill="none" xmlns="http://www.w3.org/2000/svg">
<path d="M22.865 4.28723C15.7643 4.28723 10.0034 9.77037 10.0034 16.5236C10.0034 24.2941 18.5778 36.6082 21.7262 40.8614C21.8569 41.0409 22.0282 41.187 22.2261 41.2878C22.424 41.3885 22.6429 41.441 22.865 41.441C23.087 41.441 23.306 41.3885 23.5039 41.2878C23.7018 41.187 23.8731 41.0409 24.0038 40.8614C27.1522 36.6099 35.7265 24.3004 35.7265 16.5236C35.7265 9.77037 29.9656 4.28723 22.865 4.28723Z" stroke="black" stroke-width="2.875" stroke-linecap="round" stroke-linejoin="round"/>
<path d="M22.8651 21.4359C25.2328 21.4359 27.1523 19.5165 27.1523 17.1488C27.1523 14.781 25.2328 12.8616 22.8651 12.8616C20.4973 12.8616 18.5779 14.781 18.5779 17.1488C18.5779 19.5165 20.4973 21.4359 22.8651 21.4359Z" stroke="black" stroke-width="2.875" stroke-linecap="round" stroke-linejoin="round"/>
</svg>
