<svg width="47" height="47" viewBox="0 0 47 47" fill="none" xmlns="http://www.w3.org/2000/svg">
<path d="M29.3083 9.03247H8.58766C7.64017 9.03247 6.73148 9.40886 6.0615 10.0788C5.39153 10.7488 5.01514 11.6575 5.01514 12.605V34.0401C5.01514 34.9876 5.39153 35.8963 6.0615 36.5663C6.73148 37.2362 7.64017 37.6126 8.58766 37.6126H38.4834C39.4309 37.6126 40.3396 37.2362 41.0096 36.5663C41.6795 35.8963 42.0559 34.9876 42.0559 34.0401V21.8042" stroke="currentColor" stroke-width="2.85802" stroke-linecap="round" stroke-linejoin="round"/>
<path d="M10.731 14.7485L23.592 24.7516L31.3623 18.8864" stroke="currentColor" stroke-width="2.85802" stroke-linecap="round" stroke-linejoin="round"/>
<path d="M39.3067 16.1774C41.6719 16.1774 43.5893 14.2601 43.5893 11.8949C43.5893 9.52967 41.6719 7.6123 39.3067 7.6123C36.9415 7.6123 35.0242 9.52967 35.0242 11.8949C35.0242 14.2601 36.9415 16.1774 39.3067 16.1774Z" fill="currentColor"/>
<path d="M39.3112 17.6065C38.1815 17.6065 37.0773 17.2715 36.138 16.6439C35.1987 16.0163 34.4667 15.1243 34.0344 14.0806C33.6021 13.037 33.489 11.8886 33.7094 10.7806C33.9297 9.67271 34.4737 8.65501 35.2725 7.85623C36.0713 7.05745 37.089 6.51348 38.1969 6.2931C39.3048 6.07272 40.4532 6.18582 41.4969 6.61812C42.5406 7.05041 43.4326 7.78248 44.0602 8.72174C44.6878 9.66101 45.0227 10.7653 45.0227 11.8949C45.0216 13.4094 44.4194 14.8614 43.3486 15.9323C42.2777 17.0032 40.8256 17.6053 39.3112 17.6065ZM39.3112 9.04137C38.7457 9.04048 38.1927 9.20735 37.7221 9.52086C37.2516 9.83436 36.8845 10.2804 36.6675 10.8026C36.4505 11.3247 36.3933 11.8995 36.5031 12.4542C36.6128 13.0089 36.8847 13.5186 37.2842 13.9187C37.6837 14.3189 38.193 14.5915 38.7475 14.7022C39.302 14.8128 39.8769 14.7565 40.3994 14.5403C40.9219 14.3241 41.3685 13.9578 41.6828 13.4877C41.997 13.0176 42.1647 12.4648 42.1647 11.8994C42.1647 11.1422 41.8642 10.4159 41.3292 9.88004C40.7942 9.34419 40.0684 9.04255 39.3112 9.04137Z" fill="currentColor"/>
</svg>
