<svg width="47" height="47" viewBox="0 0 47 47" fill="none" xmlns="http://www.w3.org/2000/svg">
<path d="M38.6587 32.1167C36.3651 29.3094 34.7458 27.8804 34.7458 20.1411C34.7458 13.0539 31.1267 10.5289 28.148 9.30257C27.7523 9.14001 27.3799 8.76667 27.2593 8.36028C26.7368 6.58199 25.272 5.01538 23.3249 5.01538C21.3778 5.01538 19.9121 6.58288 19.395 8.36207C19.2744 8.77292 18.902 9.14001 18.5063 9.30257C15.524 10.5307 11.9085 13.0467 11.9085 20.1411C11.904 27.8804 10.2847 29.3094 7.99106 32.1167C7.04074 33.2796 7.87317 35.0257 9.53534 35.0257H37.1234C38.7766 35.0257 39.6037 33.2742 38.6587 32.1167Z" stroke="currentColor" stroke-width="2.875" stroke-linecap="round" stroke-linejoin="round"/>
<path d="M29.0411 35.0259V36.4549C29.0411 37.971 28.4389 39.4249 27.3669 40.4969C26.2949 41.5689 24.8409 42.1712 23.3249 42.1712C21.8088 42.1712 20.3549 41.5689 19.2829 40.4969C18.2109 39.4249 17.6086 37.971 17.6086 36.4549V35.0259" stroke="currentColor" stroke-width="2.875" stroke-linecap="round" stroke-linejoin="round"/>
</svg>
