<svg width="47" height="47" viewBox="0 0 47 47" fill="none" xmlns="http://www.w3.org/2000/svg">
<path d="M38.8711 31.5303C38.2816 30.9855 37.4153 30.8515 36.674 30.7265C35.6469 30.5568 35.2539 30.3692 34.6555 29.8333C33.3784 28.6991 33.3784 27.0557 34.6555 25.9214L37.3617 23.5189C41.5058 19.8571 41.5058 13.8552 37.3617 10.1934C34.3072 7.50508 30.2078 6.17432 25.9475 6.17432C20.9728 6.17432 15.7748 7.98737 11.7646 11.542C4.30698 18.1333 4.30698 28.9313 11.7646 35.5226C15.4711 38.8004 20.4726 40.4348 25.4206 40.4705H25.5724C30.5203 40.4705 35.3968 38.8718 38.8622 35.7905C40.1483 34.6562 39.933 32.5217 38.8711 31.5303V31.5303Z" stroke="currentColor" stroke-width="2.85802" stroke-miterlimit="10"/>
<path d="M13.3177 21.8935C14.8962 21.8935 16.1757 20.6139 16.1757 19.0355C16.1757 17.4571 14.8962 16.1775 13.3177 16.1775C11.7393 16.1775 10.4597 17.4571 10.4597 19.0355C10.4597 20.6139 11.7393 21.8935 13.3177 21.8935Z" fill="currentColor"/>
<path d="M14.0323 31.0927C15.6108 31.0927 16.8903 29.8132 16.8903 28.2347C16.8903 26.6563 15.6108 25.3767 14.0323 25.3767C12.4539 25.3767 11.1743 26.6563 11.1743 28.2347C11.1743 29.8132 12.4539 31.0927 14.0323 31.0927Z" fill="currentColor"/>
<path d="M20.4628 16.1775C22.0412 16.1775 23.3208 14.8979 23.3208 13.3194C23.3208 11.741 22.0412 10.4614 20.4628 10.4614C18.8843 10.4614 17.6047 11.741 17.6047 13.3194C17.6047 14.8979 18.8843 16.1775 20.4628 16.1775Z" fill="currentColor"/>
<path d="M23.321 37.5233C25.6886 37.5233 27.608 35.6039 27.608 33.2362C27.608 30.8686 25.6886 28.9492 23.321 28.9492C20.9533 28.9492 19.0339 30.8686 19.0339 33.2362C19.0339 35.6039 20.9533 37.5233 23.321 37.5233Z" fill="currentColor"/>
<path d="M29.7513 16.1775C31.3298 16.1775 32.6093 14.8979 32.6093 13.3194C32.6093 11.741 31.3298 10.4614 29.7513 10.4614C28.1729 10.4614 26.8933 11.741 26.8933 13.3194C26.8933 14.8979 28.1729 16.1775 29.7513 16.1775Z" fill="currentColor"/>
</svg>
