<svg width="46" height="47" viewBox="0 0 46 47" fill="none" xmlns="http://www.w3.org/2000/svg">
<path d="M23.0542 42.1696C12.8108 42.1696 4.47705 33.8358 4.47705 23.5925C4.47705 13.3492 12.8108 5.01538 23.0542 5.01538C33.2975 5.01538 41.6313 13.3492 41.6313 23.5925C41.6313 33.8358 33.2975 42.1696 23.0542 42.1696ZM23.0542 7.8734C14.3908 7.8734 7.33507 14.9291 7.33507 23.5925C7.33507 32.2558 14.3908 39.3116 23.0542 39.3116C31.7175 39.3116 38.7732 32.2603 38.7732 23.5925C38.7732 14.9247 31.722 7.8734 23.0542 7.8734Z" fill="currentColor"/>
<path d="M29.098 26.8074C27.544 26.8074 26.0426 26.1179 24.87 24.8667C23.71 23.6085 23.0165 21.9907 22.9051 20.2831C22.7738 18.4343 23.3409 16.7329 24.502 15.4942C25.6631 14.2554 27.2859 13.5891 29.098 13.5891C30.8968 13.5891 32.525 14.2697 33.6825 15.5058C34.84 16.7419 35.4214 18.4531 35.2901 20.2849C35.1766 21.9915 34.4833 23.608 33.3252 24.8667C32.1516 26.1179 30.6512 26.8074 29.098 26.8074Z" fill="currentColor"/>
<path d="M14.8213 27.1078C12.1634 27.1078 9.82607 24.6508 9.61172 21.6302C9.50186 20.0833 9.98236 18.6534 10.9666 17.604C11.9508 16.5545 13.3084 15.9963 14.8204 15.9963C16.3325 15.9963 17.6892 16.5715 18.6672 17.6165C19.6451 18.6614 20.1408 20.1012 20.0292 21.6356C19.8113 24.6517 17.4748 27.1078 14.8213 27.1078Z" fill="currentColor"/>
<path d="M37.7346 32.4593C37.5926 32.0395 37.2469 31.592 36.5538 31.1678C34.4586 29.8879 31.881 29.2109 29.098 29.2109C26.3677 29.2109 23.7187 29.9165 21.6377 31.1982C19.2932 32.6423 17.7177 34.7483 17.0827 37.2875C16.9327 37.885 16.7139 38.997 16.9479 39.6195C20.703 41.0475 24.8401 41.113 28.6386 39.8046C32.4371 38.4962 35.6563 35.8969 37.7355 32.4593H37.7346Z" fill="currentColor"/>
<path d="M14.8044 36.5758C15.4358 34.0563 16.78 31.9557 18.8655 30.257C18.964 30.1756 19.039 30.0693 19.0825 29.9492C19.1261 29.829 19.1366 29.6993 19.1129 29.5737C19.0893 29.4481 19.0324 29.3311 18.9482 29.235C18.864 29.1389 18.7555 29.0671 18.6341 29.0271C17.5624 28.685 16.3388 28.502 14.8214 28.502C12.6939 28.502 10.4352 29.078 8.73557 30.1248C8.25328 30.4222 7.77992 30.5365 7.41553 30.6383C8.87854 33.8718 11.3047 36.5744 14.3623 38.3764L14.5222 38.3639C14.5571 37.76 14.6517 37.1611 14.8044 36.5758Z" fill="currentColor"/>
</svg>
