<svg width="46" height="46" viewBox="0 0 46 46" fill="none" xmlns="http://www.w3.org/2000/svg">
<path d="M23.3105 4.28713C12.8622 4.14601 4.33253 12.6757 4.47365 23.124C4.61298 33.1444 12.772 41.3034 22.7924 41.4427C33.2425 41.5857 41.7704 33.0559 41.6275 22.6077C41.4899 12.5855 33.3309 4.42646 23.3105 4.28713ZM34.6019 33.5159C34.5663 33.5544 34.5227 33.5846 34.4741 33.6043C34.4256 33.624 34.3733 33.6329 34.321 33.6301C34.2686 33.6274 34.2175 33.6132 34.1713 33.5885C34.1251 33.5638 34.0848 33.5293 34.0535 33.4873C33.2546 32.4421 32.2762 31.5472 31.1641 30.8445C28.8901 29.385 26.0087 28.5812 23.0515 28.5812C20.0942 28.5812 17.2128 29.385 14.9389 30.8445C13.8267 31.5469 12.8484 32.4415 12.0495 33.4864C12.0181 33.5284 11.9778 33.563 11.9316 33.5876C11.8854 33.6123 11.8343 33.6265 11.782 33.6292C11.7296 33.632 11.6773 33.6232 11.6288 33.6034C11.5802 33.5837 11.5366 33.5535 11.5011 33.515C8.88023 30.6858 7.39563 26.9889 7.33177 23.1329C7.18619 14.4415 14.3181 7.16669 23.0131 7.14525C31.708 7.12382 38.7711 14.1843 38.7711 22.8649C38.7741 26.814 37.2849 30.6183 34.6019 33.5159Z" fill="currentColor"/>
<path d="M23.0515 12.8616C21.2902 12.8616 19.6977 13.5216 18.566 14.7211C17.4344 15.9207 16.869 17.5793 16.9968 19.3593C17.2558 22.865 19.9719 25.7231 23.0515 25.7231C26.1311 25.7231 28.8419 22.865 29.1063 19.3602C29.2385 17.5971 28.6776 15.9537 27.5272 14.7319C26.3911 13.5261 24.8012 12.8616 23.0515 12.8616Z" fill="currentColor"/>
</svg>
