<svg width="47" height="46" viewBox="0 0 47 46" fill="none" xmlns="http://www.w3.org/2000/svg">
<g clip-path="url(#clip0)">
<path d="M30.9256 1.42896H16.6355C14.2679 1.42896 12.3485 3.34832 12.3485 5.71598V40.0122C12.3485 42.3798 14.2679 44.2992 16.6355 44.2992H30.9256C33.2933 44.2992 35.2126 42.3798 35.2126 40.0122V5.71598C35.2126 3.34832 33.2933 1.42896 30.9256 1.42896Z" stroke="currentColor" stroke-width="2.85802" stroke-linecap="round" stroke-linejoin="round"/>
<path d="M16.6356 1.42896H18.7791C18.9686 1.42896 19.1504 1.50423 19.2844 1.63823C19.4184 1.77222 19.4936 1.95396 19.4936 2.14346C19.4936 2.52246 19.6442 2.88593 19.9122 3.15392C20.1802 3.42191 20.5436 3.57247 20.9226 3.57247H26.6387C27.0177 3.57247 27.3811 3.42191 27.6491 3.15392C27.9171 2.88593 28.0677 2.52246 28.0677 2.14346C28.0677 1.95396 28.143 1.77222 28.277 1.63823C28.411 1.50423 28.5927 1.42896 28.7822 1.42896H30.9257" stroke="currentColor" stroke-width="2.85802" stroke-linecap="round" stroke-linejoin="round"/>
</g>
<defs>
<clipPath id="clip0">
<rect width="45.7283" height="45.7283" fill="white" transform="translate(0.916504)"/>
</clipPath>
</defs>
</svg>
